<mxfile host="app.diagrams.net" agent="Mozilla/5.0 (Windows NT 10.0; Win64; x64) AppleWebKit/537.36 (KHTML, like Gecko) Chrome/140.0.0.0 Safari/537.36" version="28.2.5">
  <diagram name="Page-1" id="ZI-g3mT2Tx3-ogcv4lei">
    <mxGraphModel dx="2802" dy="946" grid="1" gridSize="10" guides="1" tooltips="1" connect="1" arrows="1" fold="1" page="1" pageScale="1" pageWidth="1100" pageHeight="1700" math="0" shadow="0">
      <root>
        <mxCell id="0" />
        <mxCell id="1" parent="0" />
        <mxCell id="6w4TJL9mJ3goXlQ9s9LW-83" value="" style="shape=cylinder3;whiteSpace=wrap;html=1;boundedLbl=1;backgroundOutline=1;size=15;" vertex="1" parent="1">
          <mxGeometry x="1020" y="305" width="210" height="245" as="geometry" />
        </mxCell>
        <mxCell id="6w4TJL9mJ3goXlQ9s9LW-2" value="EKS blue" style="points=[[0,0],[0.25,0],[0.5,0],[0.75,0],[1,0],[1,0.25],[1,0.5],[1,0.75],[1,1],[0.75,1],[0.5,1],[0.25,1],[0,1],[0,0.75],[0,0.5],[0,0.25]];outlineConnect=0;gradientColor=none;html=1;whiteSpace=wrap;fontSize=12;fontStyle=0;container=1;pointerEvents=0;collapsible=0;recursiveResize=0;shape=mxgraph.aws4.group;grIcon=mxgraph.aws4.group_vpc2;strokeColor=#8C4FFF;fillColor=none;verticalAlign=top;align=left;spacingLeft=30;fontColor=#AAB7B8;dashed=0;" vertex="1" parent="1">
          <mxGeometry x="490" y="260" width="420" height="160" as="geometry" />
        </mxCell>
        <mxCell id="6w4TJL9mJ3goXlQ9s9LW-9" value="nginx-ingress" style="whiteSpace=wrap;html=1;align=center;" vertex="1" parent="6w4TJL9mJ3goXlQ9s9LW-2">
          <mxGeometry x="50" y="70" width="80" height="30" as="geometry" />
        </mxCell>
        <mxCell id="6w4TJL9mJ3goXlQ9s9LW-10" value="console" style="whiteSpace=wrap;html=1;align=center;" vertex="1" parent="6w4TJL9mJ3goXlQ9s9LW-2">
          <mxGeometry x="190" y="20" width="70" height="30" as="geometry" />
        </mxCell>
        <mxCell id="6w4TJL9mJ3goXlQ9s9LW-11" value="identity" style="whiteSpace=wrap;html=1;align=center;" vertex="1" parent="6w4TJL9mJ3goXlQ9s9LW-2">
          <mxGeometry x="190" y="70" width="70" height="30" as="geometry" />
        </mxCell>
        <mxCell id="6w4TJL9mJ3goXlQ9s9LW-12" value="integration" style="whiteSpace=wrap;html=1;align=center;" vertex="1" parent="6w4TJL9mJ3goXlQ9s9LW-2">
          <mxGeometry x="190" y="120" width="70" height="30" as="geometry" />
        </mxCell>
        <mxCell id="6w4TJL9mJ3goXlQ9s9LW-13" value="coredns" style="whiteSpace=wrap;html=1;align=center;" vertex="1" parent="6w4TJL9mJ3goXlQ9s9LW-2">
          <mxGeometry x="310" y="70" width="70" height="30" as="geometry" />
        </mxCell>
        <mxCell id="6w4TJL9mJ3goXlQ9s9LW-14" value="EKS green" style="points=[[0,0],[0.25,0],[0.5,0],[0.75,0],[1,0],[1,0.25],[1,0.5],[1,0.75],[1,1],[0.75,1],[0.5,1],[0.25,1],[0,1],[0,0.75],[0,0.5],[0,0.25]];outlineConnect=0;gradientColor=none;html=1;whiteSpace=wrap;fontSize=12;fontStyle=0;container=1;pointerEvents=0;collapsible=0;recursiveResize=0;shape=mxgraph.aws4.group;grIcon=mxgraph.aws4.group_vpc2;strokeColor=#8C4FFF;fillColor=none;verticalAlign=top;align=left;spacingLeft=30;fontColor=#AAB7B8;dashed=0;" vertex="1" parent="1">
          <mxGeometry x="490" y="480" width="420" height="160" as="geometry" />
        </mxCell>
        <mxCell id="6w4TJL9mJ3goXlQ9s9LW-16" value="console" style="whiteSpace=wrap;html=1;align=center;" vertex="1" parent="6w4TJL9mJ3goXlQ9s9LW-14">
          <mxGeometry x="190" y="20" width="70" height="30" as="geometry" />
        </mxCell>
        <mxCell id="6w4TJL9mJ3goXlQ9s9LW-17" value="identity" style="whiteSpace=wrap;html=1;align=center;" vertex="1" parent="6w4TJL9mJ3goXlQ9s9LW-14">
          <mxGeometry x="190" y="70" width="70" height="30" as="geometry" />
        </mxCell>
        <mxCell id="6w4TJL9mJ3goXlQ9s9LW-18" value="integration" style="whiteSpace=wrap;html=1;align=center;" vertex="1" parent="6w4TJL9mJ3goXlQ9s9LW-14">
          <mxGeometry x="190" y="120" width="70" height="30" as="geometry" />
        </mxCell>
        <mxCell id="6w4TJL9mJ3goXlQ9s9LW-19" value="coredns" style="whiteSpace=wrap;html=1;align=center;" vertex="1" parent="6w4TJL9mJ3goXlQ9s9LW-14">
          <mxGeometry x="310" y="70" width="70" height="30" as="geometry" />
        </mxCell>
        <mxCell id="6w4TJL9mJ3goXlQ9s9LW-84" value="nginx-ingress" style="whiteSpace=wrap;html=1;align=center;" vertex="1" parent="6w4TJL9mJ3goXlQ9s9LW-14">
          <mxGeometry x="50" y="80" width="80" height="30" as="geometry" />
        </mxCell>
        <mxCell id="6w4TJL9mJ3goXlQ9s9LW-26" value="APIC" style="whiteSpace=wrap;html=1;align=center;" vertex="1" parent="1">
          <mxGeometry x="-290" y="360" width="70" height="30" as="geometry" />
        </mxCell>
        <mxCell id="6w4TJL9mJ3goXlQ9s9LW-27" value="" style="sketch=0;outlineConnect=0;fontColor=#232F3E;gradientColor=none;fillColor=#8C4FFF;strokeColor=none;dashed=0;verticalLabelPosition=bottom;verticalAlign=top;align=center;html=1;fontSize=12;fontStyle=0;aspect=fixed;pointerEvents=1;shape=mxgraph.aws4.network_load_balancer;" vertex="1" parent="1">
          <mxGeometry x="360" y="320" width="50" height="50" as="geometry" />
        </mxCell>
        <mxCell id="6w4TJL9mJ3goXlQ9s9LW-28" value="" style="sketch=0;outlineConnect=0;fontColor=#232F3E;gradientColor=none;fillColor=#8C4FFF;strokeColor=none;dashed=0;verticalLabelPosition=bottom;verticalAlign=top;align=center;html=1;fontSize=12;fontStyle=0;aspect=fixed;pointerEvents=1;shape=mxgraph.aws4.network_load_balancer;" vertex="1" parent="1">
          <mxGeometry x="360" y="535" width="50" height="50" as="geometry" />
        </mxCell>
        <mxCell id="6w4TJL9mJ3goXlQ9s9LW-29" value="" style="sketch=0;outlineConnect=0;fontColor=#232F3E;gradientColor=none;fillColor=#8C4FFF;strokeColor=none;dashed=0;verticalLabelPosition=bottom;verticalAlign=top;align=center;html=1;fontSize=12;fontStyle=0;aspect=fixed;pointerEvents=1;shape=mxgraph.aws4.application_load_balancer;" vertex="1" parent="1">
          <mxGeometry x="90" y="420" width="68" height="68" as="geometry" />
        </mxCell>
        <mxCell id="6w4TJL9mJ3goXlQ9s9LW-31" value="" style="sketch=0;outlineConnect=0;fontColor=#232F3E;gradientColor=none;fillColor=#8C4FFF;strokeColor=none;dashed=0;verticalLabelPosition=bottom;verticalAlign=top;align=center;html=1;fontSize=12;fontStyle=0;aspect=fixed;pointerEvents=1;shape=mxgraph.aws4.network_load_balancer;" vertex="1" parent="1">
          <mxGeometry x="-130" y="350" width="50" height="50" as="geometry" />
        </mxCell>
        <mxCell id="6w4TJL9mJ3goXlQ9s9LW-32" value="" style="sketch=0;outlineConnect=0;fontColor=#232F3E;gradientColor=none;fillColor=#8C4FFF;strokeColor=none;dashed=0;verticalLabelPosition=bottom;verticalAlign=top;align=center;html=1;fontSize=12;fontStyle=0;aspect=fixed;pointerEvents=1;shape=mxgraph.aws4.network_load_balancer;" vertex="1" parent="1">
          <mxGeometry x="-130" y="510" width="50" height="50" as="geometry" />
        </mxCell>
        <mxCell id="6w4TJL9mJ3goXlQ9s9LW-35" value="" style="edgeStyle=elbowEdgeStyle;elbow=vertical;endArrow=classic;html=1;curved=0;rounded=0;endSize=8;startSize=8;" edge="1" parent="1" source="6w4TJL9mJ3goXlQ9s9LW-13" target="6w4TJL9mJ3goXlQ9s9LW-27">
          <mxGeometry width="50" height="50" relative="1" as="geometry">
            <mxPoint x="470" y="460" as="sourcePoint" />
            <mxPoint x="520" y="410" as="targetPoint" />
            <Array as="points">
              <mxPoint x="590" y="190" />
            </Array>
          </mxGeometry>
        </mxCell>
        <mxCell id="6w4TJL9mJ3goXlQ9s9LW-37" value="infinity.uat.pvcb.vn" style="edgeLabel;html=1;align=center;verticalAlign=middle;resizable=0;points=[];" vertex="1" connectable="0" parent="6w4TJL9mJ3goXlQ9s9LW-35">
          <mxGeometry x="0.0804" y="1" relative="1" as="geometry">
            <mxPoint as="offset" />
          </mxGeometry>
        </mxCell>
        <mxCell id="6w4TJL9mJ3goXlQ9s9LW-36" value="" style="edgeStyle=elbowEdgeStyle;elbow=horizontal;endArrow=classic;html=1;curved=0;rounded=0;endSize=8;startSize=8;" edge="1" parent="1" source="6w4TJL9mJ3goXlQ9s9LW-19" target="6w4TJL9mJ3goXlQ9s9LW-28">
          <mxGeometry width="50" height="50" relative="1" as="geometry">
            <mxPoint x="470" y="460" as="sourcePoint" />
            <mxPoint x="520" y="410" as="targetPoint" />
            <Array as="points">
              <mxPoint x="600" y="710" />
            </Array>
          </mxGeometry>
        </mxCell>
        <mxCell id="6w4TJL9mJ3goXlQ9s9LW-38" value="infinity.uat.pvcb.vn" style="edgeLabel;html=1;align=center;verticalAlign=middle;resizable=0;points=[];" vertex="1" connectable="0" parent="6w4TJL9mJ3goXlQ9s9LW-36">
          <mxGeometry x="0.0917" y="1" relative="1" as="geometry">
            <mxPoint as="offset" />
          </mxGeometry>
        </mxCell>
        <mxCell id="6w4TJL9mJ3goXlQ9s9LW-69" value="Rules" style="swimlane;fontStyle=0;childLayout=stackLayout;horizontal=1;startSize=30;horizontalStack=0;resizeParent=1;resizeParentMax=0;resizeLast=0;collapsible=1;marginBottom=0;whiteSpace=wrap;html=1;" vertex="1" parent="1">
          <mxGeometry x="-14" y="570" width="276" height="120" as="geometry" />
        </mxCell>
        <mxCell id="6w4TJL9mJ3goXlQ9s9LW-70" value="APIC Source IP -&amp;gt; NLB blue, NLB green" style="text;strokeColor=none;fillColor=none;align=left;verticalAlign=middle;spacingLeft=4;spacingRight=4;overflow=hidden;points=[[0,0.5],[1,0.5]];portConstraint=eastwest;rotatable=0;whiteSpace=wrap;html=1;" vertex="1" parent="6w4TJL9mJ3goXlQ9s9LW-69">
          <mxGeometry y="30" width="276" height="30" as="geometry" />
        </mxCell>
        <mxCell id="6w4TJL9mJ3goXlQ9s9LW-71" value="console-blue-infinity.uat.pvcb.vn -&amp;gt; NLB blue" style="text;strokeColor=none;fillColor=none;align=left;verticalAlign=middle;spacingLeft=4;spacingRight=4;overflow=hidden;points=[[0,0.5],[1,0.5]];portConstraint=eastwest;rotatable=0;whiteSpace=wrap;html=1;" vertex="1" parent="6w4TJL9mJ3goXlQ9s9LW-69">
          <mxGeometry y="60" width="276" height="30" as="geometry" />
        </mxCell>
        <mxCell id="6w4TJL9mJ3goXlQ9s9LW-72" value="console-green-infinity.uat.pvcb.vn -&amp;gt; NLB green" style="text;strokeColor=none;fillColor=none;align=left;verticalAlign=middle;spacingLeft=4;spacingRight=4;overflow=hidden;points=[[0,0.5],[1,0.5]];portConstraint=eastwest;rotatable=0;whiteSpace=wrap;html=1;" vertex="1" parent="6w4TJL9mJ3goXlQ9s9LW-69">
          <mxGeometry y="90" width="276" height="30" as="geometry" />
        </mxCell>
        <mxCell id="6w4TJL9mJ3goXlQ9s9LW-73" value="NLB-blue" style="text;html=1;align=center;verticalAlign=middle;whiteSpace=wrap;rounded=0;" vertex="1" parent="1">
          <mxGeometry x="347.5" y="380" width="75" height="30" as="geometry" />
        </mxCell>
        <mxCell id="6w4TJL9mJ3goXlQ9s9LW-74" value="NLB-green" style="text;html=1;align=center;verticalAlign=middle;whiteSpace=wrap;rounded=0;" vertex="1" parent="1">
          <mxGeometry x="347.5" y="500" width="75" height="30" as="geometry" />
        </mxCell>
        <mxCell id="6w4TJL9mJ3goXlQ9s9LW-75" value="ALB" style="text;html=1;align=center;verticalAlign=middle;whiteSpace=wrap;rounded=0;" vertex="1" parent="1">
          <mxGeometry x="86.5" y="380" width="75" height="30" as="geometry" />
        </mxCell>
        <mxCell id="6w4TJL9mJ3goXlQ9s9LW-76" value="NLB-live" style="text;html=1;align=center;verticalAlign=middle;whiteSpace=wrap;rounded=0;" vertex="1" parent="1">
          <mxGeometry x="-142.5" y="310" width="75" height="30" as="geometry" />
        </mxCell>
        <mxCell id="6w4TJL9mJ3goXlQ9s9LW-77" value="NLB-console" style="text;html=1;align=center;verticalAlign=middle;whiteSpace=wrap;rounded=0;" vertex="1" parent="1">
          <mxGeometry x="-142.5" y="570" width="75" height="30" as="geometry" />
        </mxCell>
        <mxCell id="6w4TJL9mJ3goXlQ9s9LW-78" value="idconfig-db-blue" style="whiteSpace=wrap;html=1;align=center;" vertex="1" parent="1">
          <mxGeometry x="1040" y="360" width="70" height="30" as="geometry" />
        </mxCell>
        <mxCell id="6w4TJL9mJ3goXlQ9s9LW-79" value="admin-db-blue" style="whiteSpace=wrap;html=1;align=center;" vertex="1" parent="1">
          <mxGeometry x="1140" y="360" width="70" height="30" as="geometry" />
        </mxCell>
        <mxCell id="6w4TJL9mJ3goXlQ9s9LW-80" value="DBX" style="whiteSpace=wrap;html=1;align=center;" vertex="1" parent="1">
          <mxGeometry x="1090" y="420" width="70" height="30" as="geometry" />
        </mxCell>
        <mxCell id="6w4TJL9mJ3goXlQ9s9LW-81" value="idconfig-db-green" style="whiteSpace=wrap;html=1;align=center;" vertex="1" parent="1">
          <mxGeometry x="1040" y="488" width="70" height="30" as="geometry" />
        </mxCell>
        <mxCell id="6w4TJL9mJ3goXlQ9s9LW-82" value="admin-db-green" style="whiteSpace=wrap;html=1;align=center;" vertex="1" parent="1">
          <mxGeometry x="1140" y="488" width="70" height="30" as="geometry" />
        </mxCell>
      </root>
    </mxGraphModel>
  </diagram>
</mxfile>
